<svg width="508" height="404" viewBox="0 0 508 404" fill="none" xmlns="http://www.w3.org/2000/svg">
<g clip-path="url(#clip0_346_101)">
<path opacity="0.55" d="M297.924 68.274C265.781 67.1562 235.162 56.7775 205.929 45.42C176.695 34.0625 147.74 21.4779 116.367 15.4613C96.1875 11.591 73.1079 11.0445 56.8523 21.8654C41.2027 32.2988 36.1467 50.2591 33.43 66.9425C31.3838 79.4924 30.1819 92.6981 35.7891 104.448C39.6779 112.606 46.5864 119.462 51.3593 127.302C67.9824 154.488 56.2364 188.014 38.2227 214.56C29.7796 227.015 19.9706 238.904 13.4545 252.15C6.93834 265.395 3.91867 280.593 9.62028 294.117C15.2772 307.531 28.7515 317.587 43.3433 324.667C72.9887 339.05 107.909 343.164 141.984 345.494C217.391 350.656 293.196 348.42 368.802 346.184C396.784 345.355 424.885 344.515 452.409 340.188C467.696 337.783 483.475 333.972 494.575 324.761C508.661 313.071 512.152 293.272 502.716 278.616C486.877 254.028 443.117 247.922 432.031 221.53C425.942 207.008 432.2 190.831 441.051 177.357C460.043 148.462 491.874 123.109 493.552 90.0798C494.704 67.3897 479.398 44.6748 455.737 33.9383C430.939 22.6454 396.54 24.0763 378.254 42.7023C359.41 61.8948 326.303 69.2578 297.924 68.274Z" fill="#F2CC39"/>
<path d="M216.269 343.059L46.2735 342.229L29.3822 302.597L89.1101 298.26L78.7002 254.808L196.835 239.49L83.7114 200.152L93.7042 197.777L275.605 227.462L265.587 295.274L251.268 332.541L216.269 343.059Z" fill="#506AD4"/>
<path d="M48.881 325.63C48.881 325.63 59.3108 323.961 65.5686 331.334C65.5686 331.334 60.9795 334.951 51.106 329.943L48.881 325.63Z" fill="#506AD4"/>
<path d="M47.7883 325.467C47.7883 325.467 41.1331 333.659 44.411 342.781C44.411 342.781 49.8345 340.61 50.4255 329.55L47.7883 325.467Z" fill="#506AD4"/>
<path d="M41.8085 311.997C41.8085 311.997 45.9804 304.341 62.668 315.058C62.668 315.058 60.443 320.205 53.0726 319.788C45.7023 319.37 43.7554 316.032 41.8085 311.997Z" fill="#506AD4"/>
<path d="M40.7308 311.446C40.7308 311.446 32.0741 310.452 31.2347 330.276C31.2347 330.276 36.7228 331.413 40.6215 325.144C44.5203 318.874 42.9211 315.356 40.7308 311.446Z" fill="#506AD4"/>
<path d="M35.6897 295.632C35.6897 295.632 40.5569 282.138 58.218 291.737C58.218 291.737 54.1852 304.118 37.4975 300.223L35.6897 295.632Z" fill="#506AD4"/>
<path d="M30.2662 275.461C30.2662 275.461 39.4444 261.828 55.7149 274.467C55.7149 274.467 50.0133 287.265 31.6569 280.31L30.2662 275.461Z" fill="#506AD4"/>
<path d="M28.3193 256.263C28.3193 256.263 39.0272 243.738 55.1388 256.263C55.1388 256.263 44.9871 267.253 28.3193 259.463V256.263Z" fill="#506AD4"/>
<path d="M26.6505 237.617C26.6505 237.617 37.4975 224.541 52.9336 236.922C52.9336 236.922 40.696 248.468 26.6505 240.678V237.617Z" fill="#506AD4"/>
<path d="M27.624 221.063C27.624 221.063 39.0471 204.231 53.4899 215.638C53.4899 215.638 41.2523 230.106 27.624 224.263V221.063Z" fill="#506AD4"/>
<path d="M30.2662 201.727C30.2662 201.727 42.3648 185.033 56.4102 197.832C56.4102 197.832 42.0867 212.299 30.2662 204.787V201.727Z" fill="#506AD4"/>
<path d="M34.2991 184.442C34.2991 184.442 48.6227 168.752 61.1186 175.002C61.1186 175.002 46.194 191.666 33.6733 188.606L34.2991 184.442Z" fill="#506AD4"/>
<path d="M39.3054 168.057C39.3054 168.057 55.8341 148.839 65.4494 155.258C65.4494 155.258 53.2714 170.163 38.1333 171.654L39.3054 168.057Z" fill="#506AD4"/>
<path d="M46.5318 149.053C46.5318 149.053 60.9994 133.363 71.5682 137.258C71.5682 137.258 59.1915 153.534 44.5898 153.952L46.5318 149.053Z" fill="#506AD4"/>
<path d="M53.0728 131.277C53.0728 131.277 69.0651 116.253 76.0183 118.896C76.0183 118.896 64.476 135.589 52.3774 134.615L53.0728 131.277Z" fill="#506AD4"/>
<path d="M59.4696 114.861C59.4696 114.861 73.2369 96.9111 80.7513 98.3022C80.7513 98.3022 72.4025 114.305 59.4696 116.685V114.861Z" fill="#506AD4"/>
<path d="M66.4129 92.7279C66.4129 92.7279 78.581 78.9707 85.1567 79.0005C85.1567 79.0005 75.5514 97.3831 65.9113 97.2142L66.4129 92.7279Z" fill="#506AD4"/>
<path d="M70.5252 77.992L82.2811 49.335C82.2811 49.335 82.8671 75.2395 69.0303 83.308L70.5252 77.992Z" fill="#506AD4"/>
<path d="M75.2981 46.3888C75.2981 46.3888 77.245 22.4566 75.9934 20.509C75.9934 20.509 84.3968 40.407 75.2186 56.9612L75.2981 46.3888Z" fill="#506AD4"/>
<path d="M35.2328 295.314C35.2328 295.314 23.0448 287.757 15.153 306.244C15.153 306.244 25.9999 313.448 36.6681 300.029L35.2328 295.314Z" fill="#506AD4"/>
<path d="M29.8739 274.691C29.8739 274.691 14.9245 267.869 7.67334 287.171C7.67334 287.171 19.2206 295.12 31.2347 279.57L29.8739 274.691Z" fill="#506AD4"/>
<path d="M27.624 257.411C27.624 257.411 16.9161 244.886 0.804565 257.411C0.804565 257.411 10.9562 268.401 27.624 260.611V257.411Z" fill="#506AD4"/>
<path d="M26.2831 237.617C26.2831 237.617 15.4361 224.541 0 236.922C0 236.922 12.2376 248.468 26.2831 240.678V237.617Z" fill="#506AD4"/>
<path d="M27.624 221.54C27.624 221.54 20.0152 202.686 3.47656 210.794C3.47656 210.794 12.4164 227.512 26.9485 224.67L27.624 221.54Z" fill="#506AD4"/>
<path d="M31.2248 201.632C31.2248 201.632 23.6608 182.45 6.88867 191.343C6.88867 191.343 17.1595 208.926 30.4799 204.593L31.2248 201.632Z" fill="#506AD4"/>
<path d="M35.9132 184.536C35.9132 184.536 32.9332 163.506 19.0269 161.623C19.0269 161.623 21.977 183.801 34.0408 188.327L35.9132 184.536Z" fill="#506AD4"/>
<path d="M39.6581 168.097C39.6581 168.097 38.4959 142.758 26.9983 141.874C26.9983 141.874 27.3857 161.106 38.3618 171.684L39.6581 168.097Z" fill="#506AD4"/>
<path d="M47.7237 148.343C47.7237 148.343 44.2968 127.272 33.3207 124.699C33.3207 124.699 34.6815 145.103 46.636 153.515L47.7237 148.343Z" fill="#506AD4"/>
<path d="M54.374 131.451C54.374 131.451 54.2597 109.501 47.5549 106.276C47.5549 106.276 43.3978 126.149 52.432 134.253L54.374 131.451Z" fill="#506AD4"/>
<path d="M59.9812 114.613C59.9812 114.613 59.0425 92.0123 52.0992 88.8276C52.0992 88.8276 49.7252 106.713 58.9431 116.094L59.9812 114.613Z" fill="#506AD4"/>
<path d="M67.3814 94.5313C67.3814 94.5313 67.3416 76.1486 62.385 71.8362C62.385 71.8362 57.4582 91.9726 64.7938 98.2277L67.3814 94.5313Z" fill="#506AD4"/>
<path d="M69.9441 77.0878L65.1216 46.4932C65.1216 46.4932 58.5707 71.5631 70.1726 82.6125L69.9441 77.0878Z" fill="#506AD4"/>
<path d="M70.8828 46.6768C70.8828 46.6768 58.5062 26.1082 58.7595 23.8228C58.7595 23.8228 60.0756 45.3801 75.6458 56.1165L70.8828 46.6768Z" fill="#506AD4"/>
<path d="M72.3331 40.6008C72.3331 40.6008 60.6517 11.3874 55.3673 9.02246C55.3673 9.02246 72.055 17.5083 73.3065 39.7661L72.3331 40.6008Z" fill="#506AD4"/>
<path d="M65.8516 97.3881L65.052 97.1446C74.9106 64.985 77.3691 44.481 71.9804 39.3388L72.5515 38.7327C78.268 44.158 75.9486 64.4385 65.8516 97.3881Z" fill="#444053"/>
<path d="M38.7044 172.687L37.5223 172.265C38.5703 169.319 39.6977 166.328 40.8797 163.382C51.1705 137.725 59.9315 113.858 65.5487 95.5349L66.5767 95.0381C60.9496 113.396 52.3426 138.178 42.0419 163.869C40.8648 166.76 39.7424 169.736 38.7044 172.687Z" fill="#444053"/>
<path d="M63.577 349.697C63.4181 349.523 47.4406 331.523 36.3006 300.794C29.7733 282.804 26.1406 263.891 25.5381 244.762C24.7732 220.85 29.7895 194.15 38.3816 169.895L39.3153 170.988C20.0252 225.425 27.6886 272.072 37.8552 300.163C48.876 330.614 64.6746 348.415 64.8286 348.594L63.577 349.697Z" fill="#444053"/>
<path d="M313.256 311.481C313.256 311.481 301.997 325.228 310.937 346.01L221.042 385.011L212.415 386.82L208.442 369.431L211.099 347.486V335.493L313.256 311.481Z" fill="#D5D6DB"/>
<path d="M29.3822 302.598L153.805 279.907L318.67 306.18L216.269 343.059L29.3822 302.598Z" fill="#506AD4"/>
<path d="M29.3822 302.598L153.805 279.907L318.67 306.18L216.269 343.059L29.3822 302.598Z" fill="#506AD4"/>
<path d="M29.3822 302.593C29.3822 302.593 17.7456 324.647 31.1553 345.017L215.663 385.011C215.663 385.011 204.21 367.443 216.254 343.059L29.3822 302.593Z" fill="#506AD4"/>
<path opacity="0.1" d="M29.3822 302.593C29.3822 302.593 17.7456 324.647 31.1553 345.017L215.663 385.011C215.663 385.011 204.21 367.443 216.254 343.059L29.3822 302.593Z" fill="black"/>
<path opacity="0.1" d="M34.8801 310.239C34.8801 310.239 28.2299 326.376 34.8801 336.819V310.239Z" fill="black"/>
<path d="M215.663 385.011L318.67 341.042C318.67 341.042 324.431 342.284 320.706 346.507C316.981 350.73 217.65 389.234 217.65 389.234L31.1553 345.017L215.663 385.011Z" fill="#506AD4"/>
<path opacity="0.1" d="M215.663 385.011L318.67 341.042C318.67 341.042 324.431 342.284 320.706 346.507C316.981 350.73 217.65 389.234 217.65 389.234L31.1553 345.017L215.663 385.011Z" fill="black"/>
<path opacity="0.1" d="M207.22 347.501C207.22 347.501 197.287 359.425 207.22 377.31V347.501Z" fill="black"/>
<path opacity="0.1" d="M255.31 347.299L210.755 362.169L210.912 362.64L255.467 347.771L255.31 347.299Z" fill="black"/>
<path opacity="0.1" d="M264.234 345.82L210.741 366.168L210.918 366.632L264.41 346.284L264.234 345.82Z" fill="black"/>
<path opacity="0.1" d="M272.43 345.748L211.04 370.885L211.228 371.344L272.618 346.208L272.43 345.748Z" fill="black"/>
<path opacity="0.1" d="M281.342 343.596L211.756 375.04L211.961 375.493L281.546 344.049L281.342 343.596Z" fill="black"/>
<path opacity="0.1" d="M288.829 343.606L212.307 377.065L212.506 377.52L289.028 344.061L288.829 343.606Z" fill="black"/>
<path opacity="0.1" d="M305.206 340.824L213.461 380.463L213.658 380.919L305.403 341.28L305.206 340.824Z" fill="black"/>
<path opacity="0.3" d="M75.606 305.022L163.017 286.639L216.269 296.824L144.641 319.927L75.606 305.022Z" fill="white"/>
<path d="M318.67 306.18C318.67 306.18 323.189 308.003 320.537 310.82C317.885 313.637 216.254 343.059 216.254 343.059L318.67 306.18Z" fill="#506AD4"/>
<path d="M362.569 263.696C362.569 263.696 351.315 277.438 360.255 298.226L270.36 337.226L261.733 339.045L257.76 321.656L260.456 299.716V287.708L362.569 263.696Z" fill="#D5D6DB"/>
<path d="M78.7002 254.808L203.118 232.123L367.988 258.395L265.587 295.274L78.7002 254.808Z" fill="#3A3768"/>
<path d="M78.6804 254.808C78.6804 254.808 67.0387 276.862 80.4484 297.232L264.956 337.227C264.956 337.227 253.508 319.644 265.567 295.269L78.6804 254.808Z" fill="#3A3768"/>
<path opacity="0.1" d="M78.6804 254.808C78.6804 254.808 67.0387 276.862 80.4484 297.232L264.956 337.227C264.956 337.227 253.508 319.644 265.567 295.269L207.22 282.635L78.6804 254.808Z" fill="black"/>
<path opacity="0.1" d="M84.1932 262.454C84.1932 262.454 77.5479 278.586 84.1932 289.034V262.454Z" fill="black"/>
<path d="M264.976 337.227L367.988 293.257C367.988 293.257 373.744 294.499 370.019 298.722C366.294 302.945 266.963 341.45 266.963 341.45L80.4683 297.232L264.976 337.227Z" fill="#3A3768"/>
<path opacity="0.1" d="M264.976 337.227L367.988 293.257C367.988 293.257 373.744 294.499 370.019 298.722C366.294 302.945 266.963 341.45 266.963 341.45L80.4683 297.232L264.976 337.227Z" fill="black"/>
<path opacity="0.1" d="M256.533 299.716C256.533 299.716 246.6 311.64 256.533 329.526V299.716Z" fill="black"/>
<path opacity="0.1" d="M304.627 299.519L260.072 314.389L260.229 314.86L304.784 299.991L304.627 299.519Z" fill="black"/>
<path opacity="0.1" d="M313.557 298.038L260.064 318.386L260.241 318.85L313.733 298.502L313.557 298.038Z" fill="black"/>
<path opacity="0.1" d="M321.745 297.959L260.355 323.096L260.544 323.556L321.933 298.419L321.745 297.959Z" fill="black"/>
<path opacity="0.1" d="M330.663 295.808L261.078 327.252L261.282 327.705L330.868 296.261L330.663 295.808Z" fill="black"/>
<path opacity="0.1" d="M338.144 295.812L261.622 329.271L261.82 329.726L338.343 296.267L338.144 295.812Z" fill="black"/>
<path opacity="0.1" d="M354.525 293.029L262.779 332.669L262.976 333.125L354.722 293.486L354.525 293.029Z" fill="black"/>
<path opacity="0.45" d="M124.924 257.237L212.335 238.855L265.587 249.04L193.959 272.142L124.924 257.237Z" fill="white"/>
<path d="M367.988 258.395C367.988 258.395 372.502 260.218 369.855 263.03C367.208 265.842 265.587 295.269 265.587 295.269L367.988 258.395Z" fill="#3A3768"/>
<path d="M367.238 209.03C367.238 209.03 355.978 233.707 364.918 254.49L275.023 282.56L266.416 284.384L262.443 266.995L265.1 245.05V233.042L367.238 209.03Z" fill="#D5D6DB"/>
<path d="M83.3837 200.147L207.806 177.457L372.676 203.729L270.27 240.608L83.3837 200.147Z" fill="#506AD4"/>
<path d="M83.3836 200.142C83.3836 200.142 71.7271 222.196 85.1368 242.566L269.645 282.561C269.645 282.561 258.192 264.978 270.251 240.608L83.3836 200.142Z" fill="#506AD4"/>
<path opacity="0.1" d="M83.3836 200.142C83.3836 200.142 71.7271 222.196 85.1368 242.566L269.645 282.561C269.645 282.561 258.192 264.978 270.251 240.608L83.3836 200.142Z" fill="black"/>
<path opacity="0.1" d="M88.8816 207.788C88.8816 207.788 82.2313 223.925 88.8816 234.368V207.788Z" fill="black"/>
<path d="M269.665 282.561L372.671 249.522C372.671 249.522 378.432 250.764 374.707 254.987C370.982 259.21 271.651 286.784 271.651 286.784L85.1567 242.566L269.665 282.561Z" fill="#506AD4"/>
<path opacity="0.1" d="M269.665 282.561L372.671 249.522C372.671 249.522 378.432 250.764 374.707 254.987C370.982 259.21 271.651 286.784 271.651 286.784L85.1567 242.566L269.665 282.561Z" fill="black"/>
<path opacity="0.1" d="M261.221 245.05C261.221 245.05 251.288 256.974 261.221 274.86V245.05Z" fill="black"/>
<path opacity="0.1" d="M309.316 244.853L264.762 259.722L264.919 260.194L309.474 245.324L309.316 244.853Z" fill="black"/>
<path opacity="0.1" d="M318.243 243.373L264.751 263.722L264.927 264.186L318.42 243.838L318.243 243.373Z" fill="black"/>
<path opacity="0.1" d="M326.427 243.297L265.037 268.434L265.225 268.894L326.615 243.757L326.427 243.297Z" fill="black"/>
<path opacity="0.1" d="M335.352 241.141L265.766 272.586L265.971 273.039L335.557 241.594L335.352 241.141Z" fill="black"/>
<path opacity="0.1" d="M342.835 241.15L266.313 274.609L266.512 275.065L343.034 241.606L342.835 241.15Z" fill="black"/>
<path opacity="0.1" d="M359.214 238.371L267.469 278.011L267.666 278.467L359.411 238.827L359.214 238.371Z" fill="black"/>
<path opacity="0.3" d="M129.607 202.571L217.019 184.189L270.27 194.374L198.643 217.476L129.607 202.571Z" fill="white"/>
<path d="M372.671 203.729C372.671 203.729 377.191 205.552 374.539 208.369C371.886 211.186 270.271 240.608 270.271 240.608L372.671 203.729Z" fill="#506AD4"/>
<path d="M154.172 52.9121C154.172 52.9121 135.299 51.7744 137.504 65.0198C137.504 65.0198 137.062 67.3599 139.183 68.4231C139.183 68.4231 139.218 67.4294 141.12 67.7722C141.799 67.8889 142.489 67.9223 143.176 67.8716C144.102 67.8082 144.982 67.4455 145.684 66.8382C145.684 66.8382 150.993 64.6422 153.06 55.9577C153.06 55.9577 154.589 54.0648 154.55 53.5779L151.351 54.9392C151.351 54.9392 152.439 57.2395 151.585 59.1523C151.585 59.1523 151.48 55.0237 150.864 55.1181C150.74 55.1181 149.21 55.918 149.21 55.918C149.21 55.918 151.083 59.9273 149.667 62.8388C149.667 62.8388 150.204 57.9003 148.624 56.2061L146.38 57.5177C146.38 57.5177 148.57 61.6563 147.085 65.0347C147.085 65.0347 147.467 59.8528 145.908 57.8357L143.871 59.4256C143.871 59.4256 145.933 63.5045 144.676 66.3066C144.676 66.3066 144.512 60.2751 143.434 59.818C143.434 59.818 141.651 61.388 141.383 62.0339C141.383 62.0339 142.794 65.0149 141.915 66.56C141.915 66.56 141.383 62.5407 140.921 62.5208C140.921 62.5208 139.148 65.1838 138.964 66.9922C139.05 65.3062 139.576 63.6722 140.489 62.2525C139.467 62.4459 138.525 62.9347 137.777 63.6585C137.777 63.6585 138.051 61.7755 140.931 61.6116C140.931 61.6116 142.396 59.5895 142.789 59.4703C142.789 59.4703 139.923 59.2268 138.19 59.9969C138.19 59.9969 139.719 58.2232 143.31 59.0032L145.297 57.3637C145.297 57.3637 141.532 56.8669 139.933 57.4184C139.933 57.4184 141.776 55.8484 145.838 56.9911L148.028 55.6844C148.028 55.6844 144.815 54.9939 142.903 55.2423C142.903 55.2423 144.919 54.1542 148.669 55.3317L150.229 54.6312C150.229 54.6312 147.879 54.1691 147.189 54.0946C146.499 54.0201 146.464 53.8313 146.464 53.8313C147.955 53.5863 149.485 53.7583 150.884 54.3281C150.884 54.3281 154.237 53.1208 154.172 52.9121Z" fill="#506AD4"/>
<path opacity="0.1" d="M419.685 107.355C419.685 107.355 400.812 106.217 403.017 119.462C403.017 119.462 402.575 121.802 404.695 122.865C404.695 122.865 404.73 121.872 406.632 122.215C407.311 122.329 408.002 122.362 408.689 122.314C409.606 122.246 410.477 121.884 411.172 121.281C411.172 121.281 416.486 119.085 418.547 110.4C418.547 110.4 420.077 108.507 420.037 108.02L416.849 109.382C416.849 109.382 417.936 111.682 417.082 113.595C417.082 113.595 416.978 109.466 416.367 109.56C416.243 109.56 414.708 110.36 414.708 110.36C414.708 110.36 416.58 114.37 415.17 117.281C415.17 117.281 415.706 112.343 414.122 110.648L411.877 111.96C411.877 111.96 414.067 116.099 412.582 119.477C412.582 119.477 412.965 114.295 411.405 112.278L409.374 113.868C409.374 113.868 411.43 117.947 410.174 120.749C410.174 120.749 410.01 114.718 408.932 114.26C408.932 114.26 407.154 115.83 406.881 116.476C406.881 116.476 408.291 119.457 407.417 121.002C407.417 121.002 406.881 116.983 406.424 116.963C406.424 116.963 404.651 119.626 404.467 121.435C404.553 119.748 405.08 118.113 405.997 116.695C404.974 116.889 404.029 117.377 403.28 118.101C403.28 118.101 403.558 116.218 406.434 116.054C406.434 116.054 407.899 114.032 408.291 113.908C408.291 113.908 405.431 113.669 403.692 114.439C403.692 114.439 405.222 112.666 408.813 113.446L410.799 111.806C410.799 111.806 407.03 111.309 405.435 111.861C405.435 111.861 407.273 110.291 411.341 111.433L413.526 110.127C413.526 110.127 410.313 109.436 408.401 109.685C408.401 109.685 410.417 108.597 414.167 109.774L415.731 109.074C415.731 109.074 413.377 108.612 412.687 108.537C411.996 108.462 411.962 108.274 411.962 108.274C413.452 108.026 414.983 108.198 416.382 108.77C416.382 108.77 419.744 107.563 419.685 107.355Z" fill="#506AD4"/>
<path opacity="0.1" d="M185.958 134.739C185.958 134.739 177.733 117.683 167.264 126.09C167.264 126.09 165.004 126.845 165.113 129.215C165.113 129.215 165.983 128.763 166.603 130.591C166.835 131.237 167.142 131.854 167.517 132.429C168.025 133.209 168.773 133.802 169.648 134.118C169.648 134.118 174.153 137.686 182.74 135.251C182.74 135.251 185.139 135.664 185.531 135.375L182.789 133.254C182.789 133.254 181.299 135.326 179.223 135.51C179.223 135.51 182.78 133.408 182.397 132.921C182.318 132.822 180.907 131.863 180.907 131.863C180.907 131.863 178.32 135.455 175.091 135.639C175.091 135.639 179.661 133.701 180.366 131.49L178.131 130.169C178.131 130.169 175.583 134.104 171.913 134.451C171.913 134.451 176.621 132.26 177.619 129.915L175.245 128.922C175.245 128.922 172.687 132.707 169.628 132.981C169.628 132.981 174.813 129.895 174.684 128.728C174.684 128.728 172.444 127.943 171.749 128.017C171.749 128.017 169.852 130.695 168.064 130.695C168.064 130.695 171.307 128.266 171.108 127.873C171.108 127.873 167.92 127.625 166.241 128.37C167.754 127.618 169.437 127.275 171.123 127.376C170.454 126.579 169.567 125.993 168.57 125.692C168.57 125.692 170.348 125.017 171.893 127.446C171.893 127.446 174.376 127.739 174.669 128.022C174.669 128.022 173.482 125.409 171.967 124.271C171.967 124.271 174.262 124.733 175.31 128.246L177.719 129.2C177.719 129.2 176.333 125.662 175.057 124.545C175.057 124.545 177.321 125.384 178.31 129.513L180.515 130.785C180.515 130.785 179.556 127.64 178.404 126.095C178.404 126.095 180.336 127.327 181.136 131.172L182.511 132.196C182.511 132.196 181.766 129.915 181.518 129.279C181.27 128.643 181.394 128.514 181.394 128.514C182.339 129.694 182.937 131.113 183.122 132.613C183.122 132.613 185.779 134.889 185.958 134.739Z" fill="#506AD4"/>
<path opacity="0.1" d="M376.565 83.2583C376.565 83.2583 368.345 66.2022 357.871 74.6085C357.871 74.6085 355.616 75.3637 355.72 77.7336C355.72 77.7336 356.594 77.2864 357.21 79.1098C357.442 79.7587 357.75 80.3775 358.129 80.953C358.635 81.731 359.382 82.3223 360.255 82.6372C360.255 82.6372 364.764 86.2044 373.346 83.775C373.346 83.775 375.745 84.1824 376.143 83.8942L373.416 81.7678C373.416 81.7678 371.926 83.8445 369.855 84.0284C369.855 84.0284 373.406 81.9218 373.024 81.4349C372.944 81.3355 371.534 80.3767 371.534 80.3767C371.534 80.3767 368.951 83.9687 365.718 84.1526C365.718 84.1526 370.292 82.2149 370.997 80.009L368.728 78.6974C368.728 78.6974 366.185 82.6273 362.509 82.98C362.509 82.98 367.218 80.7841 368.221 78.439L365.842 77.4454C365.842 77.4454 363.284 81.2362 360.23 81.5045C360.23 81.5045 365.41 78.4192 365.281 77.2566C365.281 77.2566 363.046 76.4666 362.351 76.5461C362.351 76.5461 360.453 79.2191 358.66 79.2191C358.66 79.2191 361.909 76.7896 361.71 76.3971C361.71 76.3971 358.521 76.1487 356.838 76.8939C358.35 76.1416 360.034 75.799 361.72 75.9003C361.053 75.1018 360.168 74.5162 359.172 74.216C359.172 74.216 360.95 73.5403 362.495 75.9698C362.495 75.9698 364.978 76.2679 365.271 76.5511C365.271 76.5511 364.084 73.9328 362.564 72.7951C362.564 72.7951 364.859 73.2621 365.907 76.7945L368.32 77.7485C368.32 77.7485 366.935 74.2061 365.658 73.0882C365.658 73.0882 367.923 73.9279 368.906 78.0565L371.117 79.3284C371.117 79.3284 370.153 76.1884 369.001 74.6383C369.001 74.6383 370.938 75.8704 371.732 79.7159L373.108 80.7393C373.108 80.7393 372.368 78.4589 372.115 77.823C371.862 77.187 371.991 77.0628 371.991 77.0628C372.933 78.2435 373.529 79.6623 373.714 81.1617C373.714 81.1617 376.411 83.4173 376.565 83.2583Z" fill="#506AD4"/>
<path opacity="0.1" d="M402.833 167.625C402.833 167.625 394.613 150.563 384.124 158.97C384.124 158.97 381.869 159.725 381.973 162.095C381.973 162.095 382.848 161.648 383.463 163.471C383.693 164.12 384 164.739 384.377 165.314C384.884 166.092 385.63 166.684 386.503 166.999C386.503 166.999 391.013 170.571 399.6 168.136C399.6 168.136 401.994 168.549 402.391 168.256L399.65 166.134C399.65 166.134 398.16 168.211 396.084 168.395C396.084 168.395 399.635 166.288 399.252 165.801C399.173 165.702 397.762 164.743 397.762 164.743C397.762 164.743 395.18 168.335 391.946 168.524C391.946 168.524 396.521 166.581 397.226 164.375L394.986 163.054C394.986 163.054 392.443 166.989 388.768 167.336C388.768 167.336 393.476 165.14 394.479 162.795L392.1 161.802C392.1 161.802 389.543 165.588 386.488 165.861C386.488 165.861 391.673 162.776 391.544 161.608C391.544 161.608 389.304 160.818 388.609 160.897C388.609 160.897 386.712 163.57 384.919 163.57C384.919 163.57 388.167 161.141 387.968 160.748C387.968 160.748 384.78 160.5 383.096 161.245C384.61 160.493 386.295 160.151 387.983 160.252C387.316 159.452 386.428 158.866 385.43 158.567C385.43 158.567 387.208 157.887 388.753 160.321C388.753 160.321 391.236 160.614 391.529 160.897C391.529 160.897 390.342 158.284 388.827 157.141C388.827 157.141 391.122 157.609 392.17 161.141L394.579 162.095C394.579 162.095 393.193 158.552 391.917 157.44C391.917 157.44 394.181 158.274 395.165 162.408L397.375 163.675C397.375 163.675 396.411 160.535 395.259 158.985C395.259 158.985 397.196 160.217 397.996 164.067L399.371 165.061C399.371 165.061 398.626 162.78 398.378 162.145C398.13 161.509 398.254 161.384 398.254 161.384C399.198 162.564 399.795 163.983 399.977 165.483C399.977 165.483 402.679 167.774 402.833 167.625Z" fill="#506AD4"/>
<path opacity="0.1" d="M100.3 389.592C106.606 389.592 111.718 389.02 111.718 388.315C111.718 387.61 106.606 387.038 100.3 387.038C93.9937 387.038 88.8816 387.61 88.8816 388.315C88.8816 389.02 93.9937 389.592 100.3 389.592Z" fill="#506AD4"/>
<path opacity="0.1" d="M25.4486 367.891C31.7547 367.891 36.8668 367.319 36.8668 366.614C36.8668 365.909 31.7547 365.337 25.4486 365.337C19.1426 365.337 14.0305 365.909 14.0305 366.614C14.0305 367.319 19.1426 367.891 25.4486 367.891Z" fill="#506AD4"/>
<path opacity="0.1" d="M157.356 404.005C163.662 404.005 168.774 403.433 168.774 402.728C168.774 402.023 163.662 401.451 157.356 401.451C151.05 401.451 145.938 402.023 145.938 402.728C145.938 403.433 151.05 404.005 157.356 404.005Z" fill="#506AD4"/>
<path opacity="0.1" d="M449.737 372.611C456.043 372.611 461.155 372.039 461.155 371.334C461.155 370.629 456.043 370.057 449.737 370.057C443.431 370.057 438.319 370.629 438.319 371.334C438.319 372.039 443.431 372.611 449.737 372.611Z" fill="#506AD4"/>
<path opacity="0.1" d="M354.722 366.415C361.028 366.415 366.14 365.843 366.14 365.138C366.14 364.433 361.028 363.861 354.722 363.861C348.416 363.861 343.304 364.433 343.304 365.138C343.304 365.843 348.416 366.415 354.722 366.415Z" fill="#506AD4"/>
<path opacity="0.1" d="M293.256 396.632C300.714 396.632 306.76 395.593 306.76 394.312C306.76 393.03 300.714 391.992 293.256 391.992C285.798 391.992 279.752 393.03 279.752 394.312C279.752 395.593 285.798 396.632 293.256 396.632Z" fill="#506AD4"/>
<path d="M299.28 370.991C299.28 370.991 280.477 380.709 290.191 392.156C290.191 392.156 291.105 394.64 293.747 394.466C293.747 394.466 293.221 393.502 295.237 392.732C295.955 392.454 296.637 392.092 297.269 391.654C298.123 391.063 298.761 390.21 299.086 389.224C299.086 389.224 302.931 384.077 299.951 374.553C299.951 374.553 300.338 371.86 300 371.423L297.716 374.558C297.716 374.558 300.075 376.143 300.348 378.473C300.348 378.473 297.865 374.563 297.368 374.995C297.259 375.085 296.236 376.709 296.236 376.709C296.236 376.709 300.328 379.486 300.631 383.093C300.631 383.093 298.327 378.041 295.838 377.32L294.413 379.864C294.413 379.864 298.883 382.587 299.379 386.68C299.379 386.68 296.782 381.489 294.13 380.44L293.082 383.128C293.082 383.128 297.393 385.871 297.79 389.279C297.79 389.279 294.184 383.58 292.888 383.759C292.888 383.759 292.074 386.283 292.183 387.063C292.183 387.063 295.227 389.1 295.282 391.102C295.282 391.102 292.471 387.55 292.039 387.783C292.039 387.783 291.86 391.356 292.724 393.214C292.724 393.214 291.234 390.561 291.478 387.783C290.607 388.554 289.98 389.563 289.675 390.685C289.675 390.685 288.865 388.722 291.532 386.914C291.532 386.914 291.786 384.137 292.094 383.794C292.094 383.794 289.208 385.205 287.981 386.934C287.981 386.934 288.433 384.355 292.347 383.074L293.34 380.351C293.34 380.351 289.426 382.01 288.22 383.471C288.22 383.471 289.089 380.912 293.648 379.685L294.999 377.201C294.999 377.201 291.522 378.374 289.824 379.685C289.824 379.685 291.14 377.484 295.416 376.471L296.514 374.906C296.514 374.906 293.991 375.805 293.285 376.128C292.58 376.451 292.441 376.292 292.441 376.292C293.73 375.201 295.296 374.489 296.966 374.235C296.966 374.235 299.454 371.16 299.28 370.991Z" fill="#506AD4"/>
<path d="M355.09 187.448C351.841 178.619 333.962 177.79 326.204 180.04C320.691 181.645 309.069 183.453 302.861 184.363L302.459 183.98C303.263 183.742 303.283 183.155 303.184 182.286C303.126 181.14 303.143 179.992 303.234 178.848C307.038 180.03 310.425 177.233 310.425 177.233C314.895 175.246 313.693 166.74 314.547 164.415C315.188 162.676 315.879 152.431 316.186 147.324H316.251L316.286 145.61C316.33 144.87 316.35 144.438 316.35 144.438C316.35 144.438 316.787 131.947 317.642 129.418C318.436 127.093 319.082 115.378 319.181 113.52C319.181 113.361 319.181 113.277 319.181 113.277L319.117 112.193C319.161 111.403 319.181 110.524 319.176 109.6C319.176 105.352 318.734 100.001 318.68 99.1368C318.68 99.0126 318.68 98.8636 318.68 98.6847C318.714 96.8713 318.486 87.7893 310.763 84.3562C307.917 83.0843 304.495 81.569 301.182 80.0934C300.328 72.7156 298.376 65.3774 298.545 57.9449C298.545 56.827 298.645 55.7092 298.754 54.5963C298.754 54.9192 298.719 55.2471 298.714 55.5899C298.714 56.3103 298.714 57.0357 298.714 57.7561C299.007 48.4604 302.518 39.1151 302.191 30.0182C302.161 30.9075 302.096 31.8018 302.012 32.6961C302.183 29.6192 301.861 26.5346 301.058 23.5595C300.76 22.5112 300.358 21.4281 299.499 20.7275C298.687 20.1634 297.755 19.7944 296.777 19.6494C294.427 19.0477 292.039 18.6028 289.63 18.3179C289.264 17.197 288.721 16.1419 288.021 15.1929C282.985 8.27706 275.525 1.77856 266.705 0.288078C262.279 -0.457163 257.189 0.163871 254.179 3.32866C253.865 3.60668 253.569 3.90544 253.295 4.22295C251.676 6.15561 250.98 8.6944 249.322 10.6221C249.212 10.7513 249.088 10.8705 248.969 10.9947C245.721 13.9011 240.66 14.5073 237.049 17.1156C236.413 17.5839 235.817 18.104 235.266 18.6707C233.811 20.1129 232.507 21.6993 231.372 23.4054C229.748 25.6909 228.08 28.0707 227.563 30.7982C226.525 36.2633 230.245 41.4452 230.935 46.9451C232.475 59.2515 218.862 70.1718 221.439 82.3143C222.127 85.2973 223.646 88.0242 225.82 90.179C220.511 94.9883 215.991 99.6535 215.991 99.6535V99.9317H215.152L215.236 100.925H215.152L215.614 106.316L215.152 114.166C215.152 114.166 215.152 114.25 215.152 114.409V114.449V114.663C215.152 114.663 215.152 114.747 215.152 114.906H215.181C215.335 117.783 215.946 128.127 216.671 130.308C217.526 132.837 217.958 145.327 217.958 145.327C217.958 145.327 218.901 162.979 219.766 165.314C220.63 167.649 219.403 176.13 223.888 178.132C225.2 179.139 226.753 179.783 228.392 180C228.164 181.859 228.308 183.205 229.048 183.627C229.365 183.814 229.724 183.916 230.091 183.925C229.787 184.377 229.516 184.85 229.281 185.341C227.501 185.155 225.752 184.743 224.077 184.114C219.259 182.127 203.272 177.655 198.628 180.8C193.984 183.945 182.809 186.797 187.97 199.456C193.13 212.115 195.534 212.433 195.534 212.433C197.122 213.587 198.515 214.987 199.661 216.582C201.21 218.912 215.648 224.243 219.259 224.243C220.794 224.219 222.328 224.296 223.853 224.471C223.853 224.471 219.934 227.909 220.456 229.907C220.977 231.904 219.264 247.892 219.264 247.892C219.264 247.892 223.237 251.896 224.936 246.645L224.995 246.724C225.313 247.157 227.032 249.109 230.265 246.645C231.588 245.641 232.994 244.75 234.467 243.982L250.121 241.766C251.753 241.664 253.39 241.652 255.023 241.731C257.506 241.935 259.945 240.464 261.48 239.327C264.723 240.559 268.368 241.905 270.102 242.397C273.618 243.391 289.779 247.728 293.559 246.372C294.344 246.059 295.043 245.561 295.595 244.921L299.201 245.035L297.512 245.373C297.512 245.373 300.8 245.428 305.27 245.487L305.081 245.597L310.688 245.547C318.893 245.621 328.111 245.646 329.323 245.373C331.22 244.951 341.079 245.249 343.984 245.373H344.794C344.794 245.373 355.626 243.212 351.156 232.217C347.719 223.771 337.155 221.317 332.467 220.641C333.788 220.378 334.925 220.174 335.68 220.055C338.953 219.558 345.31 216.577 345.827 215.558C346.343 214.54 351.673 211.584 353.048 209.899C354.424 208.215 358.353 196.276 355.09 187.448ZM265.369 212.155L264.837 212.329L264.48 212.448L263.794 213.124C263.248 212.756 262.662 212.369 262.051 211.971C263.129 212.036 264.236 212.1 265.369 212.155Z" fill="url(#paint0_linear_346_101)"/>
<path d="M297.035 159.77C297.035 159.77 304.634 179.643 308.955 177.656C313.276 175.668 312.104 167.222 312.928 164.907C313.753 162.592 314.667 145.034 314.667 145.034C314.667 145.034 315.084 132.613 315.908 130.099C316.673 127.789 317.294 116.138 317.398 114.305C317.398 114.146 317.398 114.062 317.398 114.062L316.579 99.6537L311.94 98.4961L301.182 102.471L299.692 110.981L299.111 114.305L298.863 115.721L297.035 159.77Z" fill="#BE6F72"/>
<path opacity="0.1" d="M299.538 156.441C299.538 156.441 306.79 162.378 308.975 162.9C311.16 163.421 312.501 168.052 312.501 168.052" fill="black"/>
<path d="M237.61 160.639C237.61 160.639 230.012 180.512 225.691 178.525C221.37 176.538 222.542 168.092 221.717 165.776C220.893 163.461 219.979 145.903 219.979 145.903C219.979 145.903 219.562 133.483 218.737 130.969C217.973 128.658 217.352 117.008 217.247 115.175C217.247 115.016 217.247 114.931 217.247 114.931L218.072 100.523L222.711 99.3655L233.468 103.34L234.958 111.851L235.539 115.175L235.788 116.59L237.61 160.639Z" fill="#BE6F72"/>
<path d="M287.092 54.2883H270.131V80.7345H287.092V54.2883Z" fill="#3E373A"/>
<path opacity="0.1" d="M287.092 54.2883H270.131V80.7345H287.092V54.2883Z" fill="black"/>
<path d="M234.63 180.433C234.63 180.433 228.834 186.807 230.985 187.965C233.135 189.122 247.047 210.819 247.047 210.819C247.047 210.819 292.739 216.448 301.356 208.002C309.973 199.556 309.799 184.467 309.799 184.467C309.799 184.467 302.876 185.958 302.121 185.148C301.366 184.338 297.219 180.433 297.219 180.433C297.219 180.433 238.604 176.876 234.63 180.433Z" fill="#4B4B5B"/>
<path opacity="0.02" d="M234.63 180.433C234.63 180.433 228.834 186.807 230.985 187.965C233.135 189.122 247.047 210.819 247.047 210.819C247.047 210.819 292.739 216.448 301.356 208.002C309.973 199.556 309.799 184.467 309.799 184.467C309.799 184.467 302.876 185.958 302.121 185.148C301.366 184.338 297.219 180.433 297.219 180.433C297.219 180.433 238.604 176.876 234.63 180.433Z" fill="black"/>
<path d="M316.887 99.8624L301.987 111.786L297.482 112.114L295.828 112.233L268.05 114.27L239.244 112.164L234.958 111.851L229.495 111.453L218.072 100.523C218.072 100.523 226.157 91.8585 233.24 86.0108C236.031 83.7006 238.668 81.8325 240.59 81.0972L240.918 80.9829C242.127 80.5113 243.206 79.7586 244.067 78.787C249.659 73.0188 254.829 58.7847 254.829 58.7847C254.829 58.7847 279.498 46.0361 276.518 62.7593C273.539 79.4825 287.609 75.3489 287.609 75.3489L292.248 77.4654L294.08 78.305L298.754 80.4464L309.298 85.2855C317.572 89.0961 316.887 99.8624 316.887 99.8624Z" fill="#BE6F72"/>
<path opacity="0.1" d="M266.893 72.4026C279.146 72.4026 289.079 62.4664 289.079 50.2094C289.079 37.9524 279.146 28.0161 266.893 28.0161C254.64 28.0161 244.708 37.9524 244.708 50.2094C244.708 62.4664 254.64 72.4026 266.893 72.4026Z" fill="black"/>
<path opacity="0.1" d="M316.921 115.671H217.247C217.247 115.512 217.247 115.428 217.247 115.428L218.072 101.02C218.072 101.02 226.157 92.3553 233.24 86.5076L295.818 84.0235L298.729 80.9531L309.273 85.7922C317.552 89.5979 316.887 100.364 316.887 100.364C316.887 100.364 318.019 112.839 316.921 115.671Z" fill="black"/>
<path d="M316.921 115.175H217.247C217.247 115.016 217.247 114.931 217.247 114.931L218.072 100.523C218.072 100.523 226.157 91.8585 233.24 86.0108L295.818 83.5267L298.729 80.4563L309.273 85.2954C317.552 89.1011 316.887 99.8673 316.887 99.8673C316.887 99.8673 318.019 112.343 316.921 115.175Z" fill="#E7C7CA"/>
<path opacity="0.1" d="M250.916 74.7725C250.916 74.7725 266.64 94.8145 287.584 74.3602C308.528 53.9058 289.903 119.984 289.903 119.984L244.708 125.35L250.916 74.7725Z" fill="black"/>
<path d="M250.916 75.7662C250.916 75.7662 266.64 95.8082 287.584 75.3538C308.528 54.8994 289.903 120.977 289.903 120.977L244.708 126.343L250.916 75.7662Z" fill="#E7C7CA"/>
<path opacity="0.1" d="M294.055 79.2836L295.719 104.667L297.502 113.113L298.863 119.571C298.863 119.571 302.34 169.254 301.346 171.738C300.353 174.222 301.843 176.21 302.051 177.531C302.26 178.853 301.843 182.172 302.007 183.662C302.171 185.153 302.007 185.813 298.202 185.282C294.398 184.75 289.094 183.826 289.094 183.826C289.094 183.826 275.684 184.82 271.05 183.165C266.416 181.511 257.64 181.506 257.64 181.506C257.64 181.506 244.395 181.839 240.094 181.342C235.793 180.845 233.468 186.643 230.657 184.984C227.846 183.324 233.965 167.267 235.951 162.626C237.938 157.986 233.304 146.231 233.304 146.231L239.264 113.157L240.59 105.66V82.0907L240.918 81.9764C242.127 81.5048 243.206 80.7521 244.067 79.7805L245.557 103.499L292.243 105.158V78.4639" fill="black"/>
<path d="M294.055 78.29L295.719 103.673L297.502 112.119L298.863 118.578C298.863 118.578 302.34 168.26 301.346 170.745C300.353 173.229 301.843 175.216 302.051 176.538C302.26 177.859 301.843 181.178 302.007 182.668C302.171 184.159 302.007 184.82 298.202 184.288C294.398 183.756 289.094 182.832 289.094 182.832C289.094 182.832 275.684 183.826 271.05 182.172C266.416 180.517 257.64 180.512 257.64 180.512C257.64 180.512 244.395 180.845 240.094 180.348C235.793 179.851 233.468 185.649 230.657 183.99C227.846 182.331 233.965 166.273 235.951 161.633C237.938 156.992 233.304 145.237 233.304 145.237L239.264 112.164L240.59 104.667V81.097L240.918 80.9828C242.127 80.5112 243.206 79.7584 244.067 78.7868L245.557 102.505L292.243 104.165V77.4702" fill="#E7C7CA"/>
<path opacity="0.1" d="M299.424 25.3182C299.141 24.2799 298.749 23.2018 297.934 22.5062C297.157 21.9475 296.258 21.5799 295.312 21.4331C293.047 20.8372 290.743 20.3956 288.418 20.1115C288.086 19.0083 287.583 17.9639 286.928 17.0163C282.061 10.1402 274.86 3.65658 266.387 2.19094C261.952 1.42086 256.811 2.11145 253.97 5.60911C252.411 7.53184 251.74 10.0806 250.166 11.9685C247.131 15.6351 241.653 16.0872 237.829 18.9241C235.788 20.4146 234.308 22.5758 232.862 24.6724C231.298 26.9429 229.689 29.3078 229.192 32.0205C228.199 37.4408 231.78 42.6078 232.44 48.0779C233.93 60.3148 220.818 71.1704 223.297 83.2433C224.742 90.2834 231.243 95.2417 237.968 97.7557C240.337 98.645 243.044 99.5293 244.151 101.805C244.648 102.798 244.732 103.946 245.199 104.95C246.769 108.298 251.929 108.428 254.7 105.988C257.472 103.549 258.346 99.6039 258.674 95.9224C260.005 79.845 253.568 63.9615 254.318 47.8444C254.541 42.9705 255.912 37.4408 260.278 35.2349C266.153 32.254 273.221 37.2222 279.687 36.2733C282.747 43.7214 283.397 51.9416 281.545 59.7782C280.517 64.0658 278.739 68.2243 278.609 72.646C278.416 79.378 282.046 85.5287 285.185 91.4807C285.859 92.5937 286.309 93.8273 286.511 95.1125C286.561 96.4166 286.318 97.7151 285.801 98.9133C284.028 103.688 280.969 108.119 280.621 113.202C280.519 113.795 280.653 114.405 280.993 114.901C281.343 115.232 281.795 115.435 282.275 115.477C287.639 116.397 292.277 111.642 294.895 106.867C297.813 101.594 299.513 95.7338 299.871 89.717C300.413 79.6016 296.787 69.6501 297.011 59.5248C297.269 48.0133 302.469 36.4223 299.424 25.3182Z" fill="black"/>
<path d="M299.921 24.8214C299.638 23.7831 299.245 22.7049 298.431 22.0094C297.653 21.4507 296.755 21.0831 295.809 20.9362C293.543 20.3403 291.24 19.8988 288.915 19.6147C288.583 18.5115 288.08 17.4671 287.425 16.5194C282.558 9.64335 275.356 3.15976 266.883 1.69412C262.448 0.924036 257.308 1.61462 254.467 5.11229C252.907 7.03501 252.237 9.58374 250.663 11.4717C247.628 15.1383 242.15 15.5904 238.326 18.4273C236.284 19.9177 234.804 22.0789 233.359 24.1756C231.795 26.4461 230.185 28.8109 229.689 31.5236C228.695 36.944 232.276 42.111 232.937 47.5811C234.427 59.8179 221.315 70.6736 223.793 82.7465C225.239 89.7866 231.74 94.7449 238.465 97.2588C240.834 98.1482 243.54 99.0325 244.648 101.308C245.145 102.302 245.229 103.449 245.696 104.453C247.265 107.802 252.426 107.931 255.197 105.491C257.968 103.052 258.842 99.107 259.17 95.4256C260.501 79.3482 254.065 63.4646 254.815 47.3476C255.038 42.4737 256.409 36.944 260.774 34.7381C266.65 31.7571 273.717 36.7254 280.184 35.7765C283.244 43.2246 283.893 51.4448 282.041 59.2814C281.013 63.569 279.235 67.7274 279.106 72.1492C278.912 78.8812 282.543 85.0319 285.682 90.9839C286.355 92.0969 286.806 93.3305 287.008 94.6157C287.057 95.9197 286.815 97.2183 286.298 98.4164C284.525 103.191 281.465 107.623 281.117 112.705C281.016 113.298 281.149 113.908 281.49 114.404C281.84 114.736 282.291 114.939 282.771 114.981C288.135 115.9 292.774 111.145 295.391 106.371C298.31 101.097 300.01 95.237 300.368 89.2202C300.909 79.1048 297.284 69.1533 297.507 59.028C297.765 47.5165 302.965 35.9255 299.921 24.8214Z" fill="#3E373A"/>
<path d="M288.95 244.802L308.652 245.433L305.826 230.816L290.733 232.252L288.95 244.802Z" fill="#C3C7D9"/>
<path d="M349.999 210.158C348.673 211.812 343.542 214.793 343.046 215.787C342.549 216.78 336.425 219.761 333.276 220.258C330.128 220.755 320.199 222.911 318.377 224.069C317.07 224.904 306.586 227.547 299.697 229.012C297.832 229.454 295.943 229.794 294.04 230.031C291.061 230.195 258.45 219.101 258.45 219.101L264.738 212.642L265.085 212.523C266.863 211.922 275.078 209.144 279.637 207.823C284.773 206.332 290.733 200.206 290.733 200.206C290.733 200.206 299.504 197.225 300.666 196.893C301.828 196.56 297.686 185.302 297.686 185.302C297.686 185.302 316.723 182.658 324.173 180.418C331.622 178.177 348.842 179.007 351.985 187.786C355.129 196.565 351.345 208.503 349.999 210.158Z" fill="#4B4B5B"/>
<path d="M263.248 238.144C263.248 238.144 259.443 242.119 255.634 241.791C251.825 241.463 238.504 242.785 238.504 242.785C236.09 243.748 233.83 245.058 231.794 246.675C228.68 249.129 227.027 247.172 226.719 246.754L226.664 246.675C225.005 251.896 221.201 247.917 221.201 247.917C221.201 247.917 222.855 232.018 222.348 230.031C221.841 228.044 225.621 224.631 225.621 224.631L230.091 223.493L241.415 220.591L257.64 226.22L263.248 238.144Z" fill="#E7C7CA"/>
<path opacity="0.1" d="M230.071 223.493L226.719 246.754L226.664 246.675C225.005 251.896 221.201 247.917 221.201 247.917C221.201 247.917 222.855 232.018 222.348 230.031C221.841 228.044 225.621 224.63 225.621 224.63L230.071 223.493Z" fill="black"/>
<path opacity="0.1" d="M253.503 157.325C253.503 157.325 262.274 160.306 269.893 157.325H253.503Z" fill="black"/>
<path opacity="0.1" d="M283.447 162.959C283.447 162.959 287.087 164.778 289.903 162.959H283.447Z" fill="black"/>
<path opacity="0.1" d="M283.447 167.272C283.447 167.272 289.571 168.091 290.733 166.437L283.447 167.272Z" fill="black"/>
<path opacity="0.1" d="M281.46 176.538C281.46 176.538 292.963 175.047 295.818 173.06L281.46 176.538Z" fill="black"/>
<path opacity="0.1" d="M246.361 173.06C246.361 173.06 252.818 176.702 257.621 176.538L246.361 173.06Z" fill="black"/>
<path opacity="0.1" d="M299.692 229.012C297.827 229.454 295.938 229.794 294.035 230.031C291.056 230.195 258.445 219.101 258.445 219.101L264.733 212.642L265.08 212.523C266.074 213.223 266.888 213.824 267.469 214.281C270.206 216.438 272.848 213.621 273.841 213.621C274.835 213.621 283.442 220.74 283.442 220.74C283.442 220.74 291.388 222.564 292.714 224.218C294.04 225.872 298.674 225.545 299.499 226.702C299.747 227.06 299.777 227.939 299.692 229.012Z" fill="black"/>
<path d="M238.504 185.977C238.504 185.977 230.468 186.439 225.835 184.487C221.201 182.534 205.804 178.028 201.335 181.193C196.865 184.358 186.102 187.155 191.069 199.744C196.035 212.334 198.355 212.662 198.355 212.662C199.891 213.815 201.233 215.207 202.328 216.786C203.818 219.106 217.724 224.402 221.201 224.402C224.677 224.402 230.801 224.402 239.408 230.364C248.015 236.326 255.798 236.992 255.798 236.992C255.798 236.992 266.724 241.463 270.126 242.457C273.528 243.45 289.074 247.753 292.719 246.431C296.365 245.11 298.679 236.823 298.679 236.823C298.679 236.823 300.333 229.37 299.504 228.213C298.674 227.055 294.04 227.383 292.719 225.728C291.398 224.074 283.447 222.251 283.447 222.251C283.447 222.251 274.86 215.126 273.866 215.126C272.873 215.126 270.231 217.938 267.494 215.787C262.043 211.748 256.316 208.096 250.354 204.857C244.067 201.543 238.504 185.977 238.504 185.977Z" fill="#4B4B5B"/>
<path opacity="0.1" d="M222.348 190.782C223.779 190.489 225.258 190.531 226.67 190.904C228.082 191.278 229.389 191.972 230.488 192.933C234.462 196.247 247.832 202.899 247.832 202.899" fill="black"/>
<path opacity="0.1" d="M321.689 190.573C321.689 190.573 303.974 193.256 300.666 196.898L321.689 190.573Z" fill="black"/>
<path d="M342.052 245.433H341.272C338.471 245.333 328.98 245.035 327.152 245.433C325.002 245.929 296.524 245.433 296.524 245.433L302.091 244.275C302.091 244.275 300.025 237.031 301.336 236.43C301.336 236.43 293.886 231.521 299.504 228.208C305.121 224.894 311.175 226.29 311.175 226.29L325.275 221.51L327.982 220.591C327.982 220.591 343.875 221.421 348.176 232.351C352.477 243.281 342.052 245.433 342.052 245.433Z" fill="#E7C7CA"/>
<path opacity="0.1" d="M342.052 245.433H341.272C345.896 241.617 356.356 230.001 325.275 221.535L327.982 220.616C327.982 220.616 343.875 221.446 348.176 232.376C352.477 243.306 342.052 245.433 342.052 245.433Z" fill="black"/>
<path d="M312.834 232.555C313.314 232.555 313.703 232.166 313.703 231.685C313.703 231.205 313.314 230.816 312.834 230.816C312.354 230.816 311.965 231.205 311.965 231.685C311.965 232.166 312.354 232.555 312.834 232.555Z" fill="#4B4B5B"/>
<path d="M307.783 233.991C308.263 233.991 308.652 233.601 308.652 233.121C308.652 232.641 308.263 232.252 307.783 232.252C307.303 232.252 306.914 232.641 306.914 233.121C306.914 233.601 307.303 233.991 307.783 233.991Z" fill="#4B4B5B"/>
<g opacity="0.1">
<path opacity="0.1" d="M283.174 49.3895C283.366 43.9248 282.395 38.4816 280.323 33.4214C273.866 34.3853 266.794 29.4021 260.914 32.3831C256.563 34.589 255.197 40.1187 254.954 44.9925C254.894 46.2793 254.884 47.5661 254.909 48.8529C254.909 48.3958 254.909 47.9338 254.954 47.4767C255.182 42.6028 256.548 37.0731 260.914 34.8672C266.794 31.8862 273.856 36.8545 280.323 35.9056C282.077 40.1917 283.043 44.7598 283.174 49.3895Z" fill="black"/>
<path opacity="0.1" d="M233.14 48.4804C233.225 47.3978 233.204 46.3095 233.076 45.2311C232.549 40.8591 230.16 36.6807 229.728 32.418C229.172 37.5601 232.445 42.4986 233.076 47.7153C233.14 47.9836 233.14 48.222 233.14 48.4804Z" fill="black"/>
<path opacity="0.1" d="M259.309 93.0655C259.001 96.752 258.132 100.692 255.336 103.136C252.54 105.581 247.39 105.446 245.835 102.098C245.338 101.104 245.264 99.9466 244.782 98.9529C243.68 96.6775 240.968 95.7931 238.599 94.9038C231.869 92.3849 225.378 87.4514 223.932 80.3915C223.803 79.7519 223.715 79.1047 223.669 78.4539C223.547 79.9328 223.636 81.4216 223.932 82.8756C225.378 89.9157 231.879 94.869 238.599 97.3879C240.968 98.2773 243.68 99.1616 244.782 101.437C245.279 102.431 245.363 103.578 245.835 104.582C247.399 107.931 252.56 108.06 255.336 105.62C258.112 103.181 258.977 99.2361 259.309 95.5497C259.461 93.6094 259.512 91.6625 259.463 89.7169C259.463 90.8447 259.399 91.9576 259.309 93.0655Z" fill="black"/>
<path opacity="0.1" d="M297.671 56.673C297.671 57.3934 297.671 58.1088 297.671 58.8242C297.949 49.5833 301.336 40.2926 301.004 31.2454C300.745 39.6119 297.86 48.1673 297.671 56.673Z" fill="black"/>
<path opacity="0.1" d="M287.013 94.0542C287.135 93.4647 287.173 92.8609 287.127 92.2606C286.927 90.9748 286.476 89.7409 285.801 88.6288C282.93 83.1637 279.657 77.5694 279.27 71.5032C279.27 71.7615 279.235 72 279.23 72.2782C279.031 79.0053 282.662 85.161 285.801 91.1129C286.334 92.0348 286.742 93.024 287.013 94.0542Z" fill="black"/>
<path opacity="0.1" d="M300.527 86.8652C300.156 92.8844 298.444 98.7443 295.516 104.016C292.893 108.79 288.259 113.545 282.89 112.626C282.409 112.584 281.957 112.379 281.609 112.044C281.508 111.931 281.429 111.799 281.376 111.657C281.316 112.044 281.266 112.437 281.237 112.834C281.134 113.426 281.268 114.035 281.609 114.529C281.957 114.863 282.409 115.068 282.89 115.11C288.259 116.029 292.893 111.274 295.516 106.5C298.444 101.228 300.156 95.3685 300.527 89.3494C300.586 88.1868 300.591 87.0292 300.557 85.8716C300.547 86.2045 300.547 86.5324 300.527 86.8652Z" fill="black"/>
</g>
<path opacity="0.1" d="M301.336 236.43C301.336 236.43 313.907 241.706 322.196 230.031" stroke="black" stroke-miterlimit="10"/>
<path opacity="0.1" d="M303.81 245.651C303.81 245.651 314.075 238.974 327.152 245.433" stroke="black" stroke-miterlimit="10"/>
<path opacity="0.1" d="M235.092 244.136C235.092 244.136 239.403 234.408 250.916 241.826" stroke="black" stroke-miterlimit="10"/>
<path opacity="0.1" d="M221.116 100.275L229.907 92.3253C229.907 92.3253 263.993 90.0896 265.403 101.681C265.403 101.681 277.487 87.9383 302.901 90.9988L313.653 99.5641L283.934 112.611L255.053 122.632L233.781 113.108L221.116 100.275Z" fill="black"/>
<path d="M221.116 100.771L229.907 92.8222C229.907 92.8222 263.993 90.5864 265.403 102.177C265.403 102.177 277.487 88.4352 302.901 91.4956L313.653 100.061L283.934 113.108L255.053 123.129L233.781 113.604L221.116 100.771Z" fill="#D5D6DB"/>
<path opacity="0.1" d="M217.228 101.765L221.116 148.303L262.339 150.375L260.551 104.036L260.516 103.256L217.228 101.765Z" fill="black"/>
<path d="M217.228 100.771L221.116 147.309L262.339 149.381L260.551 103.042L260.516 102.262L217.228 100.771Z" fill="#506AD4"/>
<path opacity="0.1" d="M315.541 100.771L273.017 107.151V153.897L314.572 147.891L315.541 100.771Z" fill="black"/>
<path d="M315.541 99.7778L273.017 106.157V152.904L314.572 146.897L315.541 99.7778Z" fill="#506AD4"/>
<path opacity="0.3" d="M305.513 111.185L282.543 113.739L283.044 121.569L305.498 119.114L305.513 111.185Z" fill="white"/>
<path d="M223.351 172.23L225.691 178.525C225.691 178.525 229.167 181.506 232.972 180.015C236.776 178.525 240.094 177.785 241.747 176.334C243.401 174.883 245.721 167.595 245.721 167.595C245.721 167.595 248.04 159.645 250.355 157.658C252.669 155.671 258.798 128.291 250.355 130.969C241.911 133.646 235.455 158.488 235.455 158.488C235.455 158.488 233.965 160.306 231.814 160.475C229.664 160.644 225.358 160.142 224.528 161.966C223.699 163.789 220.868 168.588 223.351 172.23Z" fill="#BE6F72"/>
<path opacity="0.1" d="M273.017 107.146C270.84 107.637 268.578 107.611 266.413 107.071C264.247 106.531 262.238 105.491 260.546 104.036L262.339 150.37C262.339 150.37 266.56 154.941 273.017 153.897V107.146Z" fill="black"/>
<path d="M273.017 106.152C270.84 106.643 268.578 106.617 266.413 106.077C264.247 105.537 262.238 104.498 260.546 103.042L262.339 149.376C262.339 149.376 266.56 153.947 273.017 152.904V106.152Z" fill="#506AD4"/>
<path opacity="0.1" d="M273.017 106.152C270.84 106.643 268.578 106.617 266.413 106.077C264.247 105.537 262.238 104.498 260.546 103.042L262.339 149.376C262.339 149.376 266.56 153.947 273.017 152.904V106.152Z" fill="black"/>
<path opacity="0.1" d="M274.01 100.93C274.01 100.93 291.309 95.6392 295.818 96.3844L274.01 100.93Z" fill="black"/>
<path opacity="0.1" d="M254.661 98.6203C254.661 98.6203 237.893 94.6457 235.092 95.7735L254.661 98.6203Z" fill="black"/>
<path opacity="0.1" d="M284.917 101.591C284.917 101.591 296.484 97.3483 300.666 99.3654L284.917 101.591Z" fill="black"/>
<path opacity="0.1" d="M279.091 208.026C280.884 206.68 282.791 205.494 284.793 204.484C287.773 203.048 293.236 199.322 293.236 199.322" fill="black"/>
<path opacity="0.1" d="M235.092 157.325C235.092 157.325 227.836 163.262 225.656 163.784C223.476 164.306 222.13 168.936 222.13 168.936" fill="black"/>
<path d="M311.274 171.346L308.96 177.656C308.96 177.656 305.483 180.636 301.674 179.146C297.865 177.656 294.557 176.915 292.898 175.465C291.239 174.014 288.925 166.725 288.925 166.725C288.925 166.725 286.61 158.776 284.291 156.789C281.972 154.801 275.848 127.421 284.291 130.099C292.734 132.777 299.191 157.618 299.191 157.618C299.191 157.618 300.681 159.437 302.831 159.606C304.982 159.775 309.288 159.273 310.117 161.096C310.947 162.92 313.758 167.719 311.274 171.346Z" fill="#BE6F72"/>
<path opacity="0.1" d="M307.217 159.74C307.217 159.74 311.96 162.79 311.94 166.437L307.217 159.74Z" fill="black"/>
<path d="M266.973 71.3145C279.225 71.3145 289.158 61.3783 289.158 49.1213C289.158 36.8642 279.225 26.928 266.973 26.928C254.72 26.928 244.787 36.8642 244.787 49.1213C244.787 61.3783 254.72 71.3145 266.973 71.3145Z" fill="#BE6F72"/>
<path d="M253.041 43.1644C255.733 42.7421 258.092 41.177 260.665 40.2778C266.421 38.2557 272.788 39.6419 278.614 41.4652C280.849 42.1657 283.119 42.9557 285.463 42.9557C287.807 42.9557 290.296 41.9968 291.493 39.9747C292.595 38.1166 292.382 35.702 291.453 33.7495C290.524 31.797 288.97 30.227 287.4 28.7464C282.235 23.8676 275.828 19.3067 268.741 19.8035C265.89 20.0072 263.163 21.0257 260.541 22.1535C257.239 23.5769 254.025 25.1962 250.916 27.0026C248.527 28.3887 244.102 30.2419 242.726 32.7757C239.597 38.4842 248.174 43.9295 253.041 43.1644Z" fill="#3E373A"/>
<path opacity="0.1" d="M291.493 37.888C290.296 39.9101 287.807 40.869 285.463 40.869C283.119 40.869 280.849 40.1088 278.609 39.4083C272.784 37.5849 266.421 36.1938 260.66 38.2209C258.092 39.1201 255.728 40.705 253.037 41.1025C249.113 41.7185 242.795 38.3004 242.11 33.9531C241.34 38.976 248.666 43.2786 253.037 42.5929C255.728 42.1706 258.092 40.6056 260.66 39.7114C266.421 37.6843 272.784 39.0754 278.609 40.8988C280.849 41.5993 283.114 42.3892 285.463 42.3594C287.812 42.3296 290.296 41.4055 291.493 39.3785C292.113 38.2757 292.357 37.0007 292.188 35.7467C292.11 36.5017 291.873 37.2316 291.493 37.888Z" fill="black"/>
<path d="M471.535 307.144C471.535 307.144 474.481 310.994 470.175 316.812C465.869 322.63 462.322 327.538 463.753 331.165C463.753 331.165 470.249 320.364 475.534 320.21C480.818 320.056 477.341 313.637 471.535 307.144Z" fill="#506AD4"/>
<path opacity="0.1" d="M471.535 307.144C471.792 307.515 471.994 307.922 472.136 308.351C477.292 314.412 480.043 320.071 475.082 320.21C470.463 320.344 464.925 328.606 463.599 330.688C463.641 330.856 463.693 331.022 463.753 331.185C463.753 331.185 470.249 320.384 475.534 320.23C480.818 320.076 477.341 313.637 471.535 307.144Z" fill="black"/>
<path d="M476.999 312.052C476.999 313.409 476.845 314.507 476.661 314.507C476.477 314.507 476.318 313.409 476.318 312.052C476.318 310.696 476.507 311.337 476.696 311.337C476.884 311.337 476.999 310.696 476.999 312.052Z" fill="#FFD037"/>
<path d="M478.881 313.672C477.694 314.318 476.656 314.71 476.567 314.546C476.477 314.382 477.366 313.722 478.553 313.056C479.74 312.39 479.273 312.877 479.363 313.056C479.452 313.235 480.073 313.021 478.881 313.672Z" fill="#FFD037"/>
<path d="M455.97 307.144C455.97 307.144 453.025 310.994 457.331 316.812C461.637 322.63 465.183 327.538 463.748 331.165C463.748 331.165 457.257 320.364 451.967 320.21C446.678 320.056 450.179 313.637 455.97 307.144Z" fill="#506AD4"/>
<path opacity="0.1" d="M455.97 307.144C455.714 307.515 455.512 307.922 455.369 308.351C450.214 314.412 447.463 320.071 452.424 320.21C457.038 320.344 462.581 328.606 463.907 330.688C463.865 330.857 463.812 331.023 463.748 331.185C463.748 331.185 457.257 320.384 451.967 320.23C446.678 320.076 450.179 313.637 455.97 307.144Z" fill="black"/>
<path d="M450.497 312.052C450.497 313.409 450.646 314.507 450.835 314.507C451.024 314.507 451.177 313.409 451.177 312.052C451.177 310.696 450.984 311.337 450.8 311.337C450.616 311.337 450.497 310.696 450.497 312.052Z" fill="#FFD037"/>
<path d="M448.62 313.672C449.807 314.318 450.845 314.71 450.934 314.546C451.024 314.382 450.135 313.722 448.948 313.056C447.761 312.39 448.227 312.877 448.138 313.056C448.049 313.235 447.428 313.021 448.62 313.672Z" fill="#FFD037"/>
<path opacity="0.1" d="M463.753 360.637C480.759 360.637 494.546 358.522 494.546 355.912C494.546 353.303 480.759 351.187 463.753 351.187C446.747 351.187 432.96 353.303 432.96 355.912C432.96 358.522 446.747 360.637 463.753 360.637Z" fill="#506AD4"/>
<path d="M479.601 325.973L479.452 327.176L479.244 328.875L479.159 329.585L478.951 331.284L478.861 331.995L478.658 333.689L476.298 353.016C476.09 354.74 473.274 356.086 469.872 356.086H457.629C454.227 356.086 451.416 354.74 451.202 353.016L448.843 333.689L448.635 331.995L448.55 331.284L448.342 329.585L448.252 328.875L448.049 327.176L447.9 325.973C447.785 324.98 449.305 324.175 451.232 324.175H476.274C478.196 324.175 479.72 324.995 479.601 325.973Z" fill="#65617D"/>
<path d="M479.452 327.176L479.249 328.875H448.257L448.049 327.176H479.452Z" fill="#9D9CB5"/>
<path d="M479.159 329.585L478.955 331.284H448.55L448.342 329.585H479.159Z" fill="#9D9CB5"/>
<path d="M478.866 331.995L478.658 333.694H448.843L448.64 331.995H478.866Z" fill="#9D9CB5"/>
</g>
<defs>
<linearGradient id="paint0_linear_346_101" x1="271.492" y1="249.367" x2="271.492" y2="-8.34831e-05" gradientUnits="userSpaceOnUse">
<stop stop-color="#808080" stop-opacity="0.25"/>
<stop offset="0.54" stop-color="#808080" stop-opacity="0.12"/>
<stop offset="1" stop-color="#808080" stop-opacity="0.1"/>
</linearGradient>
<clipPath id="clip0_346_101">
<rect width="508" height="404" fill="white"/>
</clipPath>
</defs>
</svg>
