<svg width="30" height="31" viewBox="0 0 30 31" fill="none" xmlns="http://www.w3.org/2000/svg">
<g clip-path="url(#clip0_346_307)">
<path d="M29.9841 15.7901C29.9841 14.52 29.8821 13.5932 29.6612 12.6321H15.2988V18.3645H23.7292C23.5593 19.7891 22.6415 21.9345 20.6018 23.3761L20.5732 23.568L25.1143 27.1203L25.4289 27.152C28.3184 24.4574 29.9841 20.4927 29.9841 15.7901Z" fill="#4285F4"/>
<path d="M15.2988 30.8934C19.429 30.8934 22.8963 29.5203 25.4289 27.1519L20.6018 23.3759C19.31 24.2856 17.5763 24.9206 15.2988 24.9206C11.2535 24.9206 7.82015 22.2261 6.59626 18.5017L6.41686 18.5171L1.69493 22.2072L1.63318 22.3805C4.1487 27.4264 9.31578 30.8934 15.2988 30.8934Z" fill="#34A853"/>
<path d="M6.59634 18.5019C6.2734 17.5407 6.08651 16.5109 6.08651 15.4468C6.08651 14.3826 6.2734 13.3529 6.57935 12.3918L6.57079 12.1871L1.78968 8.43774L1.63325 8.51288C0.596487 10.6068 0.00158691 12.9582 0.00158691 15.4468C0.00158691 17.9355 0.596487 20.2867 1.63325 22.3806L6.59634 18.5019Z" fill="#FBBC05"/>
<path d="M15.2988 5.9727C18.1712 5.9727 20.1088 7.2256 21.2137 8.27262L25.5309 4.01616C22.8794 1.52752 19.429 0 15.2988 0C9.31579 0 4.1487 3.46691 1.63318 8.51281L6.57927 12.3917C7.82016 8.66734 11.2535 5.9727 15.2988 5.9727Z" fill="#EB4335"/>
</g>
<defs>
<clipPath id="clip0_346_307">
<rect width="30" height="31" fill="white"/>
</clipPath>
</defs>
</svg>
