<svg width="78" height="78" viewBox="0 0 78 78" fill="none" xmlns="http://www.w3.org/2000/svg">
<circle cx="39" cy="39" r="39" fill="#506AD4"/>
<path d="M34.935 47.635C34.935 45.7283 35.3567 44.1517 36.2 42.905C37.08 41.6583 38.345 40.2833 39.995 38.78C41.205 37.68 42.085 36.7633 42.635 36.03C43.2217 35.26 43.515 34.3983 43.515 33.445C43.515 32.0883 42.965 31.025 41.865 30.255C40.8017 29.4483 39.3717 29.045 37.575 29.045C35.8517 29.045 34.3117 29.4117 32.955 30.145C31.635 30.8417 30.5167 31.8317 29.6 33.115L22.945 29.21C24.485 26.8633 26.5567 25.0483 29.16 23.765C31.8 22.4817 34.9167 21.84 38.51 21.84C42.7267 21.84 46.1 22.7383 48.63 24.535C51.1967 26.3317 52.48 28.825 52.48 32.015C52.48 33.5183 52.2233 34.8383 51.71 35.975C51.2333 37.1117 50.6283 38.0833 49.895 38.89C49.1983 39.66 48.2817 40.5583 47.145 41.585C45.7883 42.795 44.7983 43.8217 44.175 44.665C43.5517 45.4717 43.24 46.4617 43.24 47.635H34.935ZM39.115 61.44C37.6117 61.44 36.3467 60.9633 35.32 60.01C34.33 59.02 33.835 57.8283 33.835 56.435C33.835 55.0417 34.33 53.8867 35.32 52.97C36.31 52.0167 37.575 51.54 39.115 51.54C40.655 51.54 41.92 52.0167 42.91 52.97C43.9 53.8867 44.395 55.0417 44.395 56.435C44.395 57.8283 43.8817 59.02 42.855 60.01C41.865 60.9633 40.6183 61.44 39.115 61.44Z" fill="#F2CC39"/>
</svg>
