<svg width="86" height="86" viewBox="0 0 86 86" fill="none" xmlns="http://www.w3.org/2000/svg">
<path d="M70.984 30.4047C70.9828 29.9955 70.973 29.5863 70.9547 29.1775V5.97781L64.5408 12.3917C59.2913 5.96552 51.3056 1.86206 42.3608 1.86206C33.0523 1.86206 24.7825 6.30543 19.5549 13.1855L30.0682 23.81C31.0976 21.9081 32.5558 20.2721 34.3273 19.0315C36.1626 17.5988 38.7631 16.4283 42.3608 16.4283C42.7949 16.4283 43.1307 16.4788 43.3771 16.5743C47.8341 16.9265 51.6973 19.3864 53.9729 22.9561L46.5312 30.3993C55.9571 30.3617 66.6048 30.3406 70.9833 30.404" fill="#1C3AA9"/>
<path d="M42.1936 1.86279C41.7827 1.86416 41.3738 1.87371 40.9664 1.89214H17.7666L24.1805 8.30602C17.7544 13.5555 13.6502 21.5412 13.6502 30.486C13.6502 39.7945 18.0936 48.0643 24.9736 53.2919L35.5981 42.7786C33.6963 41.7492 32.0602 40.291 30.8196 38.5196C29.3877 36.6842 28.2164 34.0837 28.2164 30.486C28.2164 30.0519 28.2669 29.7161 28.3625 29.4697C28.7147 25.0127 31.1746 21.1495 34.7443 18.8739L42.1874 26.3156C42.1499 16.8897 42.128 6.242 42.1922 1.86348" fill="#4285F4"/>
<path d="M13.6516 30.4854C13.653 30.8962 13.6625 31.3051 13.681 31.7126V54.9123L20.0948 48.4991C25.3443 54.9246 33.3301 59.0287 42.2748 59.0287C51.5834 59.0287 59.8531 54.5853 65.0807 47.7046L54.5675 37.0801C53.538 38.982 52.0798 40.618 50.3084 41.8586C48.473 43.2913 45.8725 44.4618 42.2748 44.4618C41.8407 44.4618 41.5049 44.4113 41.2585 44.3158C36.8015 43.9636 32.9383 41.5037 30.6627 37.934L38.1045 30.4915C28.6785 30.529 18.0308 30.5502 13.6523 30.4867" fill="#ABABAB"/>
<path d="M18.4813 70.1133C17.7837 70.1133 17.1592 70.2457 16.6056 70.5098C16.0528 70.7685 15.5845 71.1378 15.1996 71.619C14.8208 72.0995 14.5293 72.6831 14.3253 73.3677C14.1266 74.0468 14.0277 74.8078 14.0277 75.6487V78.0738C14.0277 78.9215 14.1266 79.6846 14.3253 80.3637C14.5293 81.0436 14.8181 81.623 15.1907 82.1042C15.5634 82.5854 16.0139 82.9547 16.5428 83.2127C17.0718 83.4707 17.667 83.6004 18.3277 83.6004C19.0068 83.6004 19.602 83.5014 20.1132 83.3035C20.6059 83.1211 21.05 82.8281 21.4114 82.4469C21.7705 82.0502 22.0435 81.5836 22.2134 81.0763C22.4059 80.5412 22.5206 79.9344 22.5561 79.2553H20.8886C20.8463 79.7781 20.7739 80.2259 20.6722 80.5985C20.5699 80.9651 20.4197 81.2688 20.2218 81.5091C20.0215 81.749 19.7595 81.9297 19.4641 82.0319C19.157 82.1404 18.7789 82.1943 18.3277 82.1943C17.8472 82.1943 17.4383 82.0892 17.1018 81.879C16.7596 81.6566 16.4778 81.3529 16.2814 80.9951C16.0767 80.6224 15.9265 80.187 15.8309 79.688C15.7377 79.1551 15.6922 78.6149 15.6951 78.0738V75.6303C15.6951 75.0119 15.7497 74.4495 15.8576 73.9444C15.9716 73.4393 16.1429 73.01 16.3715 72.6558C16.6002 72.3008 16.8882 72.0278 17.237 71.8353C17.5851 71.6374 18.0008 71.5378 18.4813 71.5378C18.884 71.5378 19.2293 71.5978 19.5181 71.7179C19.8068 71.8319 20.047 72.0128 20.2395 72.2592C20.4313 72.4995 20.5787 72.8052 20.6811 73.1786C20.7835 73.5513 20.8517 73.9956 20.8886 74.513H22.5561C22.526 73.8031 22.4148 73.1752 22.223 72.6291C22.0305 72.0817 21.7629 71.6217 21.4203 71.249C21.0736 70.8735 20.6447 70.5834 20.1672 70.4013C19.6805 70.2095 19.1181 70.1133 18.4813 70.1133ZM59.1964 70.1133C58.4989 70.1133 57.8744 70.2457 57.3208 70.5098C56.7679 70.7685 56.2997 71.1378 55.9148 71.619C55.5359 72.0995 55.2445 72.6831 55.0404 73.3677C54.8418 74.0468 54.7428 74.8078 54.7428 75.6487V78.0738C54.7428 78.9215 54.8418 79.6846 55.0404 80.3637C55.2445 81.0436 55.5332 81.623 55.9059 82.1042C56.2646 82.5735 56.7275 82.953 57.258 83.2127C57.787 83.4721 58.3822 83.6004 59.0429 83.6004C59.722 83.6004 60.3172 83.5014 60.8284 83.3035C61.321 83.1211 61.7652 82.8281 62.1266 82.4469C62.4859 82.0503 62.7592 81.5837 62.9293 81.0763C63.1211 80.5412 63.2357 79.9344 63.2712 79.2553H61.6038C61.5615 79.7781 61.4898 80.2259 61.3874 80.5985C61.285 80.9651 61.1349 81.2688 60.9369 81.5091C60.7366 81.749 60.4747 81.9297 60.1793 82.0319C59.8722 82.1404 59.494 82.1943 59.0429 82.1943C58.5624 82.1943 58.1535 82.0892 57.817 81.879C57.4748 81.6566 57.193 81.3529 56.9966 80.9951C56.7918 80.6224 56.6417 80.187 56.5461 79.688C56.4531 79.1551 56.4078 78.6148 56.411 78.0738V75.6303C56.411 75.0119 56.4649 74.4495 56.5727 73.9444C56.6874 73.4393 56.8587 73.01 57.0867 72.6558C57.3153 72.3008 57.6034 72.0278 57.9522 71.8353C58.3003 71.6374 58.7159 71.5378 59.1964 71.5378C59.5991 71.5378 59.9445 71.5978 60.2332 71.7179C60.5219 71.8319 60.7622 72.0128 60.9547 72.2592C61.1465 72.4995 61.2939 72.8052 61.3963 73.1786C61.4987 73.5513 61.5669 73.9956 61.6038 74.513H63.2712C63.2412 73.8031 63.1299 73.1752 62.9382 72.6291C62.7457 72.0817 62.4781 71.6217 62.1355 71.249C61.7928 70.8764 61.3751 70.5938 60.8823 70.4013C60.3957 70.2095 59.8333 70.1133 59.1964 70.1133ZM27.9843 70.2935L23.756 83.4202H25.4507L26.4698 79.9938H30.9056L31.9424 83.4202H33.6372L29.3999 70.2935H27.9843ZM35.422 70.2935V83.4202H37.0717V78.2813H39.6054C40.2367 78.2813 40.795 78.1939 41.2824 78.0199C41.7435 77.8558 42.1623 77.5909 42.5082 77.2445C42.8447 76.908 43.0973 76.4937 43.2658 76.0002C43.4399 75.502 43.5273 74.9368 43.5273 74.3055C43.5273 73.7226 43.4399 73.1875 43.2658 72.7008C43.1097 72.2285 42.8544 71.7949 42.5171 71.4292C42.1739 71.0601 41.7515 70.7735 41.2817 70.5911C40.7957 70.3931 40.2367 70.2935 39.6054 70.2935H35.422ZM44.7893 70.2935V71.7179H48.2334V83.4202H49.8831V71.7179H53.3361V70.2935H44.7893ZM65.4984 70.2935V83.4202H67.1481V77.3524H72.431V83.4202H74.0903V70.2935H72.4317V75.9374H67.1488V70.2935H65.4984ZM80.3471 70.2935L76.1188 83.4202H77.8135L78.8326 79.9938H83.2684L84.3052 83.4202H86L81.7627 70.2935H80.3471ZM37.0717 71.7179H39.6054C40.0081 71.7179 40.3507 71.7903 40.6333 71.9343C40.9213 72.079 41.1561 72.2708 41.3363 72.5117C41.5226 72.752 41.6571 73.0312 41.7417 73.3499C41.8318 73.6625 41.8769 73.9867 41.8769 74.3239C41.8769 74.6966 41.8318 75.0385 41.7417 75.3511C41.6578 75.6583 41.5226 75.9252 41.3363 76.1538C41.1477 76.3824 40.9064 76.5618 40.6333 76.6766C40.3507 76.8029 40.0081 76.8657 39.6054 76.8657H37.0717V71.7179ZM28.6874 72.6018L30.4818 78.57H26.9025L28.6874 72.6018ZM81.0502 72.6018L82.8446 78.57H79.2653L81.0502 72.6018ZM3.3902 73.4851C2.97521 73.4851 2.61756 73.5902 2.31724 73.8004C2.02306 74.0113 1.77666 74.2966 1.57804 74.657L1.55074 73.6652H0V83.4202H1.59579V76.4418C1.74595 76.0275 1.95959 75.6999 2.23602 75.459C2.51859 75.2187 2.87624 75.0986 3.30898 75.0986C3.44753 75.0986 3.57039 75.1054 3.67892 75.117C3.78676 75.1232 3.90416 75.1375 4.03043 75.1621L4.02155 73.6113C3.98391 73.5949 3.94452 73.5828 3.90416 73.5751C3.85132 73.5557 3.79699 73.5407 3.74171 73.5301C3.67922 73.5177 3.61611 73.5085 3.55265 73.5028C3.49921 73.4916 3.4448 73.4857 3.3902 73.4851ZM8.755 73.4851C8.29598 73.4843 7.84063 73.5669 7.41107 73.7287C6.9673 73.8987 6.57146 74.1739 6.25757 74.5307C5.92654 74.8979 5.65898 75.3784 5.4549 75.9736C5.25014 76.5627 5.14775 77.2868 5.14775 78.1462V79.2464C5.14775 79.9918 5.23512 80.6374 5.40985 81.1848C5.58458 81.7322 5.83303 82.1855 6.15792 82.5458C6.48827 82.9008 6.88824 83.1649 7.35715 83.3396C7.82606 83.5137 8.35162 83.6011 8.93519 83.6011C9.35564 83.6011 9.73104 83.5587 10.0614 83.4748C10.3703 83.4007 10.6699 83.2917 10.9542 83.1499C11.2128 83.012 11.4354 82.8557 11.6217 82.681C11.808 82.5063 11.9671 82.3261 12.0995 82.1404L11.2702 81.1302C11.1378 81.2927 10.9965 81.4428 10.8463 81.5807C10.6962 81.7138 10.531 81.8305 10.3501 81.9329C10.1699 82.0285 9.97198 82.1042 9.75562 82.1581C9.53925 82.2128 9.29558 82.2401 9.02529 82.2401C8.2861 82.2401 7.71754 82.0019 7.32098 81.5275C6.93056 81.0524 6.73535 80.2921 6.73535 79.2464V79.0212H12.1807V78.0922C12.1807 77.3469 12.1172 76.6889 11.991 76.1176C11.8654 75.547 11.6633 75.0665 11.3869 74.6754C11.118 74.2908 10.7507 73.9856 10.3235 73.7915C9.89076 73.5868 9.36793 73.4851 8.75432 73.4851H8.755ZM8.755 74.8556C9.1031 74.8556 9.39182 74.9184 9.61979 75.0447C9.84844 75.1709 10.0293 75.3484 10.161 75.5771C10.2989 75.805 10.3986 76.0787 10.4586 76.3975C10.5248 76.7101 10.5665 77.0555 10.5849 77.4343V77.6506H6.74423C6.76812 77.1032 6.83432 76.6493 6.94216 76.2889C7.05001 75.9286 7.19198 75.6426 7.36602 75.4324C7.54622 75.216 7.75371 75.0658 7.98851 74.9819C8.23455 74.8958 8.49367 74.8531 8.75432 74.8556H8.755Z" fill="#A6A6A6"/>
</svg>
